<svg xmlns="http://www.w3.org/2000/svg" xmlns:xlink="http://www.w3.org/1999/xlink" viewBox="0 0 2325.68 755.57"><defs><style>.cls-1,.cls-10,.cls-11,.cls-12,.cls-13,.cls-14,.cls-15,.cls-16,.cls-17,.cls-18,.cls-19,.cls-2,.cls-20,.cls-21,.cls-3,.cls-4,.cls-5,.cls-6,.cls-7,.cls-8,.cls-9{stroke:#fff;stroke-width:2px;}.cls-1,.cls-10,.cls-11,.cls-12,.cls-13,.cls-14,.cls-15,.cls-16,.cls-17,.cls-18,.cls-19,.cls-2,.cls-20,.cls-21,.cls-24,.cls-3,.cls-4,.cls-5,.cls-6,.cls-7,.cls-8,.cls-9{stroke-miterlimit:10;}.cls-1{fill:url(#linear-gradient);}.cls-2{fill:url(#linear-gradient-2);}.cls-3{fill:url(#linear-gradient-3);}.cls-4{fill:url(#linear-gradient-4);}.cls-5{fill:url(#linear-gradient-5);}.cls-6{fill:url(#linear-gradient-6);}.cls-7{fill:url(#linear-gradient-7);}.cls-8{fill:url(#linear-gradient-8);}.cls-9{fill:url(#linear-gradient-9);}.cls-10{fill:url(#linear-gradient-10);}.cls-11{fill:url(#linear-gradient-11);}.cls-12{fill:url(#linear-gradient-12);}.cls-13{fill:url(#linear-gradient-13);}.cls-14{fill:url(#linear-gradient-14);}.cls-15{fill:url(#linear-gradient-15);}.cls-16{fill:url(#linear-gradient-16);}.cls-17{fill:url(#linear-gradient-17);}.cls-18{fill:url(#linear-gradient-18);}.cls-19{fill:url(#linear-gradient-19);}.cls-20{fill:url(#linear-gradient-20);}.cls-21{fill:url(#linear-gradient-21);}.cls-22{fill:url(#linear-gradient-22);}.cls-23{fill:url(#linear-gradient-23);}.cls-24{fill:none;stroke-width:7px;stroke:url(#linear-gradient-24);}</style><linearGradient id="linear-gradient" x1="1" y1="435.14" x2="497.34" y2="435.14" gradientUnits="userSpaceOnUse"><stop offset="0" stop-color="#a18645"/><stop offset="0.3" stop-color="#ebd988"/><stop offset="0.64" stop-color="#f5e7a1"/><stop offset="1" stop-color="#c4b369"/></linearGradient><linearGradient id="linear-gradient-2" x1="305.31" y1="85.81" x2="558.29" y2="85.81" xlink:href="#linear-gradient"/><linearGradient id="linear-gradient-3" x1="449.62" y1="115.6" x2="449.65" y2="115.6" xlink:href="#linear-gradient"/><linearGradient id="linear-gradient-4" x1="411.68" y1="354.8" x2="2096.88" y2="-135.82" xlink:href="#linear-gradient"/><linearGradient id="linear-gradient-5" x1="510.11" y1="383.26" x2="2086.11" y2="-45.58" xlink:href="#linear-gradient"/><linearGradient id="linear-gradient-6" x1="526.93" y1="445.08" x2="2102.93" y2="16.24" xlink:href="#linear-gradient"/><linearGradient id="linear-gradient-7" x1="537.61" y1="484.32" x2="2113.61" y2="55.48" xlink:href="#linear-gradient"/><linearGradient id="linear-gradient-8" x1="480.09" y1="589.79" x2="2165.29" y2="99.16" xlink:href="#linear-gradient"/><linearGradient id="linear-gradient-9" x1="501.01" y1="662.26" x2="2186.21" y2="171.64" xlink:href="#linear-gradient"/><linearGradient id="linear-gradient-10" x1="518.02" y1="720.06" x2="2203.22" y2="229.43" xlink:href="#linear-gradient"/><linearGradient id="linear-gradient-11" x1="545.44" y1="534.03" x2="2121.44" y2="105.18" xlink:href="#linear-gradient"/><linearGradient id="linear-gradient-12" x1="556.19" y1="573.55" x2="2132.19" y2="144.71" xlink:href="#linear-gradient"/><linearGradient id="linear-gradient-13" x1="567.63" y1="615.6" x2="2143.63" y2="186.75" xlink:href="#linear-gradient"/><linearGradient id="linear-gradient-14" x1="574.83" y1="642.04" x2="2150.83" y2="213.2" xlink:href="#linear-gradient"/><linearGradient id="linear-gradient-15" x1="586.63" y1="685.41" x2="2162.63" y2="256.56" xlink:href="#linear-gradient"/><linearGradient id="linear-gradient-16" x1="596.21" y1="720.6" x2="2172.21" y2="291.75" xlink:href="#linear-gradient"/><linearGradient id="linear-gradient-17" x1="605.25" y1="753.82" x2="2181.25" y2="324.97" xlink:href="#linear-gradient"/><linearGradient id="linear-gradient-18" x1="619.71" y1="806.97" x2="2195.71" y2="378.13" xlink:href="#linear-gradient"/><linearGradient id="linear-gradient-19" x1="628.64" y1="839.8" x2="2204.64" y2="410.96" xlink:href="#linear-gradient"/><linearGradient id="linear-gradient-20" x1="636.27" y1="867.84" x2="2212.27" y2="438.99" xlink:href="#linear-gradient"/><linearGradient id="linear-gradient-21" x1="646.97" y1="907.14" x2="2222.97" y2="478.3" xlink:href="#linear-gradient"/><linearGradient id="linear-gradient-22" x1="2192.7" y1="82.87" x2="2233.84" y2="82.87" xlink:href="#linear-gradient"/><linearGradient id="linear-gradient-23" x1="2239.71" y1="82.87" x2="2292.92" y2="82.87" xlink:href="#linear-gradient"/><linearGradient id="linear-gradient-24" x1="2159.94" y1="82.87" x2="2325.68" y2="82.87" xlink:href="#linear-gradient"/></defs><g id="Layer_2" data-name="Layer 2"><g id="Layer_1-2" data-name="Layer 1"><path class="cls-1" d="M492.39,204.71C510.07,133.46,474.7,120,474.7,120s-8.45-3.54-23.72-4.31a1.8,1.8,0,0,0-1.79,1.11l-2.85,7.78a3.78,3.78,0,0,0,.3,3.26L452,137a2.49,2.49,0,0,1-1.62,3.64l-21.11,6.15a2.77,2.77,0,0,1-3.65-2.44V118.86a1.65,1.65,0,0,0-2-1.52,162.54,162.54,0,0,0-19.69,4.5,1.49,1.49,0,0,0-.83,2.37l8,9.91a15.57,15.57,0,0,1,3.29,7.52l.72,5.09a5.11,5.11,0,0,1-4.39,5.58l-21.34,3.89a5.5,5.5,0,0,1-6.51-4.08l-3.75-19.8a.94.94,0,0,0-1.32-.62A256.34,256.34,0,0,0,337.65,155c-4.14,2.9-8.27,6-12.41,9.2-78.43,61.33-155.31,179-155.31,178.94a184.92,184.92,0,0,1-41.15-73.62c-12.13-43.21,15.11-95.7,61.87-111,33.51-11,70.85-2.54,103.87,9.63-7.36-12-21.76-19-36.14-23.14-41-11.79-88-4.48-122.34,19-43.28,29.59-67.15,89-52.78,136.85,9.83,32.74,32.05,64.32,56.91,89.42-82.52,108.89-129.68,242-129.68,242C-3.66,672.13-8.42,727,43.14,745.24c49,17.37,106.1,8.08,153.91-8.23,54-18.44,107.72-54.12,141.61-97,15.6-19.74,27.52-42.75,30.09-67.21C373,532,348.66,497.14,320,468.12c-40.45-40.89-87.71-75.62-135.21-109.61,8.62-15.47,18.83-30.16,29.56-44.49a920.24,920.24,0,0,1,62.57-74.83c27.93-30.05,59.29-59.57,99.59-73.91,9.81-3.49,21-6,30.72-2.34,12.47,4.67,18.45,18,19.13,30.26.95,17.43-6.06,34.41-14.56,50.05-27.67,50.82-71.54,92.56-115.66,132.55,6.53-5.92,61.41,40.23,67,45.56a234.57,234.57,0,0,1,48.57,66.12c19.78,40.46,27.44,89.27,14.44,132.59,89.86-189.52-84-248.66-84-248.66C431.13,333.78,474.7,276,492.39,204.71ZM277.77,537.93A133.09,133.09,0,0,1,284,557.42c10.61,44.86-10.87,89.44-49.5,117.81,0,0-113.48,83.35-165,39,0,0-36.85-18.82,0-115.61,0,0,30.94-92.76,85.47-192.25,19.51,14.76,38.13,30.62,56,47C238.8,479,264.33,504.79,277.77,537.93Z"/><path class="cls-2" d="M520.3,44.11a.92.92,0,0,0-.87,1.19c1.9,4.79.81,24.89.32,27.24-1.5,7.25-4.61,14-7.85,20.71a2.79,2.79,0,0,1-4.81.17c-4.18-7.22-13.25-20.61-24.37-23.55A2.07,2.07,0,0,0,480,71.64c-.13,6.44.45,25.11,10.9,35.38l13.6,14a.88.88,0,0,1-.56,1.48l-13.1,2.24a1,1,0,0,1-1.12-.64c-1.16-3.9-8-20.84-41.21-24.22a1,1,0,0,0-1.06.64c-.95,3.09-4.62,15-4.63,15l-3.41,11.06a3.37,3.37,0,0,0,.83,3.35l4.49,4.68a.87.87,0,0,1-.43,1.44l-10.57,3.16a1,1,0,0,1-1.28-.86v-17a.75.75,0,0,0,0-.2l-1.26-4.94-4.9-19.26a1,1,0,0,0-1.08-.68l-12.63,1.53a.9.9,0,0,0-.83,1.07c.53,2.12-.06,7.86-16,16.54a.71.71,0,0,0-.14.1c-.48.41-3.41,3.28-1.78,9.54,1.08,4.19,4.21,9.92,11.51,17.45a.88.88,0,0,1-.53,1.48l-14.51,2.78a.92.92,0,0,1-1.08-1.27c1.18-2.36,2-7.48-2.52-17.7a97.86,97.86,0,0,0-6.52-12,.79.79,0,0,1-.08-.73,79.82,79.82,0,0,1,9.44-16.81c.57-.81-.47-1.76-1.35-1.24-3.83,2.25-11,7.27-22.82,18.29a1,1,0,0,1-.35.21c-1.66.6-13.82,4.93-31,10.13a1,1,0,0,0-.48.3l-16.09,19.09a.85.85,0,0,0-.13.89l7.6,17.18a.89.89,0,0,1-.67,1.2l-15.65,3.67a.92.92,0,0,1-1.13-1.24c1.2-2.46,1.78-7.93-2-20a.79.79,0,0,1,.09-.7l19.67-30.37a1,1,0,0,1,.35-.31C327.58,114.37,345,105.13,351.4,90a33.74,33.74,0,0,1,9.38-11.85.86.86,0,0,0-.44-1.55A55.47,55.47,0,0,1,354,74.88c-5.22-1.55-10.75-4.23-12.73-9.23C337.56,56.27,345,47.16,352.06,41c10.6-9.28,25.31-14.59,38.93-19a190.27,190.27,0,0,0-28.31,18.21c-6.39,4.92-14.9,10.77-14.49,19.28.24,5.21,4.92,8.09,10.14,9,9,1.53,18.38-2.88,26.46-5.94a121.7,121.7,0,0,0,17.84-8.41,101.63,101.63,0,0,0,18.42-13.48c6.47-6,10.29-13.11,15.83-19.6,15.39-18.06,53.74-27.68,65.82-.9,0,0,14.09,27.41,54.2,11.05,1-.39,1.83.66,1.15,1.39C554.92,35.86,545.93,41.54,520.3,44.11Z"/><line class="cls-3" x1="449.65" y1="115.56" x2="449.62" y2="115.65"/><path class="cls-4" d="M594.06,390.25q-23.73-6.88-38.11-17.9L572.78,335a114.35,114.35,0,0,0,32.76,16.22,122.78,122.78,0,0,0,38,6.12q21.13,0,31.23-6.27t10.1-16.69a16,16,0,0,0-6-12.7,45.39,45.39,0,0,0-15.3-8.12q-9.34-3-25.26-6.73Q613.81,301,598.19,295.2a65.12,65.12,0,0,1-26.78-18.68q-11.19-12.86-11.18-34.29a59.7,59.7,0,0,1,10.1-33.83q10.11-15.15,30.47-24t49.75-8.88a165,165,0,0,1,40.1,4.9,118.76,118.76,0,0,1,34.29,14.08l-15.31,37.66q-29.7-16.83-59.39-16.84-20.82,0-30.77,6.74t-10,17.75q0,11,11.48,16.38t35.06,10.56q24.48,5.82,40.1,11.64A66.42,66.42,0,0,1,723,296.73q11.17,12.56,11.17,34a58.54,58.54,0,0,1-10.25,33.52q-10.26,15.16-30.77,24t-49.9,8.88A175,175,0,0,1,594.06,390.25Z"/><path class="cls-5" d="M964.65,179.17v214.3h-49.6V305.61H817.7v87.86H768.1V179.17h49.6v84.49h97.35V179.17Z"/><path class="cls-6" d="M1152,393.47l-41.33-59.7h-45.61v59.7h-49.6V179.17h92.76q28.47,0,49.45,9.49T1190,215.6q11.33,17.44,11.33,41.33t-11.48,41.17q-11.47,17.31-32.6,26.49l48.06,68.88Zm-12.55-164.25q-11.64-9.65-34-9.64h-40.41v74.7h40.41q22.33,0,34-9.8t11.63-27.55Q1151.09,238.87,1139.46,229.22Z"/><path class="cls-7" d="M1240.49,179.17h49.59v214.3h-49.59Z"/><path class="cls-8" d="M1564.08,393.47l-41.33-59.7h-45.62v59.7h-49.59V179.17h92.76q28.47,0,49.44,9.49T1602,215.6q11.32,17.44,11.33,41.33t-11.48,41.17q-11.49,17.31-32.61,26.49l48.07,68.88Zm-12.55-164.25q-11.64-9.65-34-9.64h-40.41v74.7h40.41q22.35,0,34-9.8t11.63-27.55Q1563.16,238.87,1551.53,229.22Z"/><path class="cls-9" d="M1793.68,347.55h-99.49l-19,45.92h-50.83l95.52-214.3h49l95.82,214.3h-52Zm-15.61-37.66-34-82-34,82Z"/><path class="cls-10" d="M2082.07,393.47l-.3-128.58L2018.7,370.81h-22.35l-62.76-103.17V393.47h-46.53V179.17h41l80.21,133.17,79-133.17H2128l.61,214.3Z"/><path class="cls-11" d="M594.33,483.31H556v-18.2h98.27v18.2H615.84v97.62H594.33Z"/><path class="cls-12" d="M768.21,580.93,744.56,547a44.14,44.14,0,0,1-4.47.17H714v33.75H692.44V465.11h47.65q15,0,26.22,5a38.09,38.09,0,0,1,17.13,14.22q6,9.27,5.95,22,0,13.06-6.37,22.5t-18.28,14.06l26.64,38.06Zm-7.77-91.66q-7.29-6-21.34-6H714v46.16H739.1q14.05,0,21.34-6t7.28-17.12Q767.72,495.23,760.44,489.27Z"/><path class="cls-13" d="M910.5,554.12H852.59l-11.41,26.81H819l52.11-115.82H892.3l52.28,115.82h-22.5Zm-7.12-16.87-21.83-50.63-21.68,50.63Z"/><path class="cls-14" d="M981.31,465.11h50.63q18.52,0,32.92,7.2a53.29,53.29,0,0,1,22.34,20.35q7.93,13.15,7.94,30.36t-7.94,30.36a53.29,53.29,0,0,1-22.34,20.35q-14.38,7.2-32.92,7.2H981.31Zm49.63,97.62a49.18,49.18,0,0,0,22.42-4.88,34.9,34.9,0,0,0,14.89-13.9,44.65,44.65,0,0,0,0-41.86,34.9,34.9,0,0,0-14.89-13.9,49.18,49.18,0,0,0-22.42-4.88h-28.12v79.42Z"/><path class="cls-15" d="M1226.83,562.89v18H1140V465.11h84.55v18h-63v30.11h55.92V531h-55.92v31.93Z"/><path class="cls-16" d="M1348.6,580.93,1324.94,547a43.78,43.78,0,0,1-4.46.17h-26.14v33.75h-21.51V465.11h47.65q15,0,26.22,5a38.14,38.14,0,0,1,17.13,14.22q6,9.27,6,22,0,13.06-6.37,22.5t-18.28,14.06l26.64,38.06Zm-7.77-91.66q-7.29-6-21.34-6h-25.15v46.16h25.15q14.05,0,21.34-6t7.28-17.12Q1348.11,495.23,1340.83,489.27Z"/><path class="cls-17" d="M1425.78,578.78q-12.49-3.81-19.77-10.1l7.45-16.71a58.6,58.6,0,0,0,17.45,9.18,63.26,63.26,0,0,0,20.77,3.56q12.9,0,19.27-4.13t6.37-10.92a10.58,10.58,0,0,0-3.56-8.19,25,25,0,0,0-9-5.05q-5.46-1.81-14.89-4.14a173.51,173.51,0,0,1-21.43-6.28,35.24,35.24,0,0,1-14.06-9.85q-5.88-6.69-5.88-18.11a30.88,30.88,0,0,1,5.22-17.46q5.2-7.86,15.71-12.49t25.73-4.63a82.89,82.89,0,0,1,20.85,2.65,57.52,57.52,0,0,1,17.7,7.61l-6.78,16.71a67.17,67.17,0,0,0-15.89-6.79,59.5,59.5,0,0,0-16-2.31q-12.75,0-19,4.3a13.25,13.25,0,0,0-6.2,11.41,10.32,10.32,0,0,0,3.55,8.11,25.58,25.58,0,0,0,9,5q5.46,1.83,14.89,4.14a155.92,155.92,0,0,1,21.18,6.21,36.24,36.24,0,0,1,14.14,9.84q5.88,6.62,5.88,17.87a30.52,30.52,0,0,1-5.21,17.37q-5.22,7.79-15.8,12.41t-25.81,4.63A88.61,88.61,0,0,1,1425.78,578.78Z"/><path class="cls-18" d="M1631.43,574.89a56.76,56.76,0,0,1-22.17-21.26,62.12,62.12,0,0,1,.09-61.22,57.31,57.31,0,0,1,22.25-21.26,65.2,65.2,0,0,1,31.68-7.69,66.07,66.07,0,0,1,26,5,52.93,52.93,0,0,1,19.85,14.4l-13.89,13.07a40.53,40.53,0,0,0-30.94-13.57,43.44,43.44,0,0,0-21.35,5.21A37.54,37.54,0,0,0,1628.21,502a44.29,44.29,0,0,0,0,42,37.6,37.6,0,0,0,14.72,14.48,43.44,43.44,0,0,0,21.35,5.21q18.36,0,30.94-13.73l13.89,13.23a52.82,52.82,0,0,1-19.93,14.4,66.72,66.72,0,0,1-26.06,5A65.24,65.24,0,0,1,1631.43,574.89Z"/><path class="cls-19" d="M1751.8,465.11h21.5v97.62h60.56v18.2H1751.8Z"/><path class="cls-20" d="M1883.66,569.1q-13.4-13.49-13.4-38.64V465.11h21.51v64.53q0,34.08,29.45,34.08,29.28,0,29.28-34.08V465.11h21.18v65.35q0,25.15-13.32,38.64t-37.31,13.48Q1897.07,582.58,1883.66,569.1Z"/><path class="cls-21" d="M2121.08,531.21q5.63,7.37,5.62,18.28,0,15.06-11.58,23.25t-33.75,8.19h-57.58V465.11h54.27q20.52,0,31.6,8t11.09,22.08a29.11,29.11,0,0,1-4,15.23,27.17,27.17,0,0,1-10.92,10.25A30.61,30.61,0,0,1,2121.08,531.21ZM2045.3,482v31.93h30.44q11.25,0,17.29-4t6-11.83q0-7.95-6-12T2075.74,482ZM2105,547.34q0-16.71-25-16.71H2045.3v33.42h34.75Q2105,564.05,2105,547.34Z"/><path class="cls-22" d="M2207.81,68.17H2192.7V59.26h41.14v8.91h-15.11v38.31h-10.92Z"/><path class="cls-23" d="M2282.67,106.48l-.07-28.33-13.89,23.33h-4.92L2250,78.75v27.73h-10.25V59.26h9l17.67,29.34,17.4-29.34h9l.13,47.22Z"/><circle class="cls-24" cx="2242.81" cy="82.87" r="79.37"/></g></g></svg>